<svg xmlns="http://www.w3.org/2000/svg" viewBox="0 0 512 512">
  <g fill="currentColor">
    <path d="M169.5 16.3 259.3 88 337 92.3l-1 18.7-161.4-8.9-118.8-4.9 
             227.3 68-197.7 246.8-14.5-17.7-49.2 96.6 248.7-202.8 51.8 11.6
             -38.8 40.6L270.5 329.5l-57.3 84.1L444.8 273.5 328 241.1l100.2-81.7
             c1.1.5 2.3.9 3.5 1.2 23.3 6.2 49.8-16.8 59.1-51.5 9.3-34.7-2.1-67.9-25.4-74.1
             -23.3-6.3-49.8 16.8-59.1 51.5a95.4 95.4 0 0 0-2.9 16.2L169.5 16.3z"/>
  </g>
</svg>