<svg xmlns="http://www.w3.org/2000/svg" viewBox="0 0 512 512">
  <!-- 通过 translate 和 scale 缩小到85%并居中，增加安全边距 -->
  <g fill="currentColor" transform="translate(25.6, 25.6) scale(0.9)">
    <path d="M269.2 20.3C234.8 20.7 200.6 27.3 166.7 39l-38 157.4h69.3c-15 36.8-5 78.4 10.7 106.9
             l18.7-53.1 20.7 57.8 21.3-53.2 21.3 53.9 21.3-58.4 18.7 53.8
             c17.6-32 20.9-75.5 10.7-107.5h68.7L372.1 39c-34.2-13.2-68.6-19.1-103-18.7z
             m-92 90c30 6.4 54.7 20 68.5 48.1l-80.4 7.2 12-55.3z
             m185 0 12 55.3-80.5-7.2c15.1-26.1 39.9-39.5 68.5-48.1z
             m-92.5 64.7 7.4 9.8 24.9 32.8-14.9 11.3-17.4-23-17.4 23-14.9-11.3 24.9-32.8 7.4-9.8z
             m-111.2 88.6c-8.7.5-15.6 7.3-16.4 15.8-7.7 15.2-13.6 32.2-17.3 49.6-20.8-14.4-45.4-17.3-72.5-12.7-2.4-6.8-8.8-11.7-16.4-11.7-9.6 0-17.4 7.8-17.4 17.4 0 9.6 7.8 17.4 17.4 17.4 4.6 0 8.7-1.8 11.8-4.6 23 16 47.5 21.6 73.3 18.7-2.2 23.7-.2 47.2 7 67.4 0 .1 0 .2 0 .3.5 9.6 8.7 17 18.3 16.4 9.6-.5 16.9-8.7 16.4-18.3-.5-9.6-8.7-16.9-18.3-16.4-.7 0-1.4.1-2 .3-2.3-10.6-3.3-22.2-3-34.3 104 15.6 281.1 29.3 353.9-46.7l-78.9-7.2c-82.5 16.1-176.9 16.6-268.7 8.3 2.3-8.8 5.1-17.5 8.5-25.6 1.9.6 3.9.8 5.9.7 9.6-.5 16.9-8.7 16.4-18.3-.5-9.6-8.7-16.9-18.3-16.4z
             m49.9 130.4c-19 23.8-18 45.5-18.3 71.5 56 21.6 108 19.9 160.4 0 2.7-28.2-2.9-51-19.7-70.8
             l-17 54.3-23.4-51.9-20.8 59.9-20.8-59.3-24.8 51.2-15.6-55z"/>
  </g>
</svg>